<?xml version="1.0" standalone="no"?>
<!DOCTYPE svg PUBLIC "-//W3C//DTD SVG 20010904//EN"
 "http://www.w3.org/TR/2001/REC-SVG-20010904/DTD/svg10.dtd">
<svg version="1.0" xmlns="http://www.w3.org/2000/svg"
 width="260.000000pt" height="260.000000pt" viewBox="0 0 260.000000 260.000000"
 preserveAspectRatio="xMidYMid meet">
<metadata>
Created by potrace 1.11, written by Peter Selinger 2001-2013
</metadata>
<g transform="translate(0.000000,260.000000) scale(0.100000,-0.100000)"
fill="#000000" stroke="none">
<path d="M525 2590 c13 -6 15 -9 5 -9 -13 -1 -13 -2 0 -11 13 -8 13 -10 -2
-10 -9 0 -19 6 -21 13 -4 10 -6 10 -6 0 -1 -7 -10 -13 -21 -13 -11 0 -20 -7
-20 -15 0 -13 -28 -20 -61 -17 -3 1 -6 -6 -7 -14 -1 -7 -3 -21 -4 -29 -2 -18
-14 -20 -21 -2 -3 7 -6 3 -7 -8 -1 -11 -3 -26 -4 -34 0 -8 -8 -16 -16 -18 -13
-4 -13 -3 0 6 12 8 12 13 2 23 -6 6 -12 10 -13 8 0 -3 -2 -14 -5 -25 -2 -11
-5 -33 -6 -48 -1 -16 -6 -31 -10 -33 -4 -3 -5 5 -3 16 2 11 0 18 -6 15 -5 -4
-9 -31 -9 -61 0 -41 -3 -53 -12 -48 -10 6 -10 4 0 -7 19 -20 14 -34 -6 -16
-17 15 -18 15 -19 -6 -1 -12 1 -17 5 -10 5 8 10 8 17 -1 12 -14 20 -64 8 -53
-4 5 -8 14 -8 20 0 5 -7 12 -15 14 -9 3 -11 1 -5 -4 6 -4 11 -15 13 -23 2 -8
8 -16 13 -18 5 -2 9 -16 9 -31 0 -15 6 -33 12 -40 10 -11 10 -13 1 -7 -8 5
-13 1 -13 -9 0 -10 6 -15 13 -12 12 4 16 -10 20 -60 0 -6 6 -9 14 -6 11 4 11
8 1 22 -12 14 -11 14 4 3 10 -8 17 -17 16 -20 -3 -25 4 -42 17 -42 8 0 15 -9
15 -20 0 -16 7 -20 30 -20 17 0 30 -5 30 -11 0 -5 -6 -7 -12 -3 -7 4 -9 3 -5
-1 8 -9 23 -13 68 -17 18 -1 25 -7 22 -16 -5 -11 -7 -11 -15 0 -8 10 -9 10 -5
-2 3 -12 27 -16 119 -18 110 -3 116 -2 121 17 3 12 10 21 16 21 13 0 10 -21
-4 -33 -6 -5 -4 -7 5 -4 8 2 15 10 15 18 0 9 13 15 40 16 22 0 34 -1 28 -4 -7
-2 -13 -9 -13 -14 0 -6 5 -7 10 -4 6 4 10 -5 10 -19 0 -16 6 -26 15 -26 8 0
15 -9 15 -20 0 -11 6 -20 14 -20 18 0 28 -15 30 -44 1 -11 7 -20 14 -19 7 2
12 -6 12 -17 0 -13 7 -20 20 -20 13 0 20 -7 20 -20 0 -11 7 -20 15 -20 8 0 14
-3 14 -7 -3 -21 3 -31 18 -29 10 0 18 -4 18 -11 0 -6 3 -14 7 -18 4 -4 4 -13
1 -21 -3 -8 -1 -14 5 -14 6 0 13 6 15 13 3 6 6 -3 6 -20 1 -23 -4 -33 -14 -33
-8 0 -14 -6 -12 -12 1 -7 -8 -14 -20 -16 -22 -3 -29 -21 -24 -59 1 -7 -5 -13
-14 -13 -11 0 -15 -11 -16 -42 -1 -24 -1 -48 0 -54 1 -7 -6 -11 -15 -10 -9 0
-18 -7 -20 -18 -2 -14 0 -16 9 -7 19 19 22 13 23 -44 1 -30 -2 -53 -6 -50 -4
2 -6 22 -5 44 1 30 -1 38 -12 34 -12 -5 -12 -7 -1 -14 10 -7 10 -9 -2 -9 -13
0 -13 -1 0 -10 13 -9 13 -10 0 -10 -9 0 -11 -3 -5 -8 6 -4 11 -14 13 -22 2 -8
8 -16 13 -18 5 -2 9 -21 9 -43 0 -28 4 -39 15 -39 11 0 15 -11 15 -36 0 -33 2
-35 17 -23 11 10 14 10 9 2 -4 -7 -2 -13 3 -13 6 0 11 -9 11 -20 0 -11 7 -20
15 -20 8 0 15 -7 15 -15 0 -8 9 -15 20 -15 11 0 20 -5 20 -11 0 -8 6 -7 17 2
13 10 13 8 -2 -10 -15 -17 -16 -22 -5 -21 8 1 25 2 38 1 21 -1 23 -5 20 -48
-2 -30 -8 -48 -18 -51 -12 -4 -13 -3 -3 10 10 12 10 15 -1 15 -9 0 -14 -20
-16 -71 -1 -39 -3 -77 -3 -83 0 -7 -5 -13 -10 -13 -5 0 -7 7 -3 15 3 8 1 15
-4 15 -5 0 -10 -21 -10 -48 -1 -26 -1 -60 -2 -76 0 -20 -3 -25 -9 -15 -7 12
-9 11 -9 -1 0 -13 -1 -13 -10 0 -7 11 -10 -2 -10 -42 l0 -58 -41 0 c-29 0 -38
-3 -33 -12 6 -10 4 -10 -8 0 -13 10 -17 10 -21 -2 -4 -9 1 -17 11 -19 16 -4
-52 -11 -72 -8 -5 1 -3 -6 5 -15 9 -12 9 -15 2 -10 -9 5 -13 1 -13 -11 0 -15
-2 -16 -10 -3 -9 13 -11 13 -20 0 -5 -8 -10 -25 -10 -37 0 -12 -5 -25 -12 -29
-8 -5 -9 -1 -4 12 5 14 4 16 -4 8 -16 -16 -9 -200 8 -196 7 1 12 -5 10 -15 -2
-12 2 -17 12 -15 12 3 13 1 2 -9 -14 -15 -16 -33 -2 -24 5 3 18 -3 30 -15 11
-11 31 -21 45 -22 16 -2 25 -9 25 -19 0 -13 14 -16 85 -17 51 0 87 4 91 10 5
7 2 8 -6 3 -8 -5 -11 -3 -8 6 3 8 11 14 19 14 21 1 40 15 34 26 -3 5 1 6 9 3
15 -6 20 5 17 34 -1 6 5 12 14 12 10 0 13 -5 9 -12 -4 -7 -3 -8 4 -4 7 4 12
19 12 33 0 20 4 24 18 19 16 -6 16 -5 0 8 -22 16 -23 30 -3 22 9 -3 15 0 15
10 0 8 -4 13 -9 9 -5 -3 -13 -1 -16 5 -4 6 -1 9 6 8 6 -2 13 10 16 25 2 17 0
26 -6 23 -5 -4 -13 -1 -17 5 -4 7 -3 9 4 5 16 -10 26 14 12 27 -10 9 -11 9 -6
0 4 -7 3 -13 -3 -13 -5 0 -9 14 -9 31 1 17 -5 35 -13 40 -12 7 -12 9 0 9 8 0
11 3 8 6 -4 4 -13 1 -22 -6 -12 -10 -15 -10 -15 4 0 9 6 16 13 17 6 1 1 4 -12
8 -13 3 -25 13 -27 21 -1 8 -3 20 -4 25 -6 28 1 125 10 125 5 0 7 -7 4 -15 -4
-8 -2 -15 3 -15 6 0 11 30 13 68 1 37 3 74 4 83 0 9 6 16 13 16 8 0 9 -6 2
-18 -14 -27 -11 -36 5 -13 8 11 14 37 14 58 0 22 6 42 13 47 8 5 9 9 3 9 -6 0
-11 7 -11 15 0 8 7 15 15 15 8 0 12 6 8 15 -3 8 -1 15 5 15 6 0 8 8 5 18 -4
13 -1 19 9 19 10 0 14 -6 10 -16 -4 -13 -2 -12 9 1 15 20 31 24 20 6 -6 -10
-4 -10 7 -2 8 7 34 12 59 13 25 0 55 3 68 5 19 4 22 1 22 -25 0 -23 4 -29 17
-27 18 3 20 -1 22 -51 0 -17 8 -32 17 -35 15 -6 15 -4 3 11 -13 16 -12 17 4 4
9 -7 17 -26 17 -42 0 -19 5 -29 15 -29 10 0 15 -11 16 -37 1 -21 1 -42 0 -46
-1 -5 3 -6 9 -2 6 3 8 10 6 14 -3 4 0 8 7 8 7 0 13 -14 14 -31 2 -17 9 -36 18
-42 8 -6 15 -23 15 -37 0 -14 6 -27 13 -30 9 -4 10 -7 0 -18 -7 -7 -13 -21
-13 -31 0 -10 -6 -18 -13 -18 -14 0 -19 -34 -20 -115 0 -105 3 -125 17 -125 8
0 16 -10 18 -22 2 -16 9 -22 21 -20 10 2 17 -3 17 -13 0 -8 9 -16 20 -16 35
-2 40 -4 41 -12 0 -5 -3 -12 -7 -15 -4 -4 -4 -2 -1 4 3 6 0 11 -7 11 -7 0 -13
-5 -13 -12 0 -7 31 -12 90 -14 61 -2 87 1 82 8 -3 6 -2 11 4 11 5 0 11 -5 13
-12 3 -7 7 -5 11 6 4 9 3 15 -2 11 -5 -3 -13 -1 -16 5 -4 6 -3 10 2 9 31 -5
63 3 63 16 0 8 7 15 15 15 13 0 21 32 16 63 -1 5 3 6 9 2 6 -3 8 -11 5 -16 -4
-5 -2 -9 4 -9 15 0 20 12 22 59 2 25 9 46 18 52 14 9 13 10 -1 5 -10 -3 -18
-1 -18 4 0 6 6 10 13 10 9 0 9 2 0 8 -7 4 -13 27 -14 50 -3 45 -12 61 -25 41
-5 -8 -3 -9 6 -4 9 6 11 4 6 -4 -5 -7 -11 -9 -15 -6 -6 7 -8 13 -10 45 0 11
-8 20 -16 20 -8 0 -15 7 -15 15 0 10 -10 15 -34 15 -21 0 -36 6 -40 15 -6 17
9 21 17 5 3 -6 4 -5 3 2 -2 9 -27 14 -79 16 -82 3 -84 5 -78 62 2 13 1 13 -8
0 -5 -8 -7 -18 -5 -22 6 -10 -10 -11 -19 -1 -4 3 -1 13 6 21 9 13 9 14 0 8
-12 -7 -17 9 -16 51 0 6 -6 9 -14 6 -7 -3 -13 -2 -12 3 4 25 -3 42 -20 47 -11
3 -19 14 -19 28 -2 36 -7 57 -17 66 -4 4 -5 3 -1 -4 3 -6 2 -14 -4 -18 -6 -4
-10 8 -10 30 0 29 -4 35 -17 33 -14 -2 -19 5 -21 35 -2 24 -8 37 -18 37 -8 0
-14 10 -14 26 0 17 4 23 13 18 7 -5 6 0 -3 11 -14 17 -13 18 3 12 13 -5 17 -1
17 14 0 12 8 23 20 26 11 3 20 12 20 19 0 8 7 14 16 14 14 0 14 1 0 16 -20 19
-21 31 -2 15 12 -10 15 -7 18 16 2 21 8 27 23 25 16 -2 17 -1 5 7 -8 5 -17 8
-21 5 -4 -2 -7 5 -6 15 1 18 3 19 17 6 15 -13 17 -13 17 0 0 8 -4 15 -8 15
-16 0 -28 36 -18 51 8 12 10 12 8 -1 -3 -26 1 -40 10 -40 5 0 9 21 9 46 1 42
0 45 -16 33 -15 -12 -15 -11 1 7 20 24 18 65 -4 73 -8 3 -16 20 -18 36 -1 17
-8 33 -15 37 -8 6 -8 8 2 8 6 0 12 5 12 10 0 6 -5 9 -12 8 -6 -2 -14 8 -18 22
-4 16 -12 24 -23 22 -13 -2 -17 5 -17 33 0 25 4 35 15 35 16 0 24 13 30 47 1
10 8 17 14 16 10 -3 15 11 12 30 -1 5 4 7 11 4 7 -2 12 -11 10 -18 -2 -8 0
-10 5 -6 8 9 10 14 12 47 0 11 8 20 16 20 8 0 15 7 15 15 0 8 9 15 20 15 11 0
20 5 20 11 0 5 -5 7 -11 3 -6 -3 -4 5 5 18 9 14 13 28 9 33 -5 4 -2 5 5 1 7
-4 10 -13 6 -19 -3 -7 3 -2 13 9 10 12 27 20 37 18 63 -10 159 -7 151 6 -3 6
-2 10 4 10 5 0 12 -6 15 -12 4 -7 4 -3 2 10 -3 18 0 22 20 22 15 0 24 6 24 15
0 8 7 15 15 15 8 0 15 9 15 20 0 13 7 20 20 20 16 0 20 7 21 38 1 20 1 40 0
45 -2 12 17 8 22 -5 2 -7 3 10 3 39 -1 28 -4 49 -7 47 -4 -2 -5 -17 -4 -34 1
-17 0 -28 -4 -25 -6 6 -7 18 -10 101 -1 31 -4 36 -21 31 -16 -4 -20 0 -20 19
0 15 -6 24 -15 24 -8 0 -15 7 -15 15 0 8 -8 15 -18 15 -11 0 -24 10 -31 23
l-11 22 6 -22 c3 -13 1 -23 -5 -23 -6 0 -11 10 -11 21 0 19 -2 20 -17 8 -13
-11 -15 -11 -9 -1 6 10 -5 13 -53 11 -53 -2 -61 -5 -61 -21 0 -12 -5 -18 -12
-15 -7 2 -22 -3 -32 -12 -16 -13 -18 -13 -12 -1 4 9 2 8 -7 -2 -8 -10 -22 -18
-31 -18 -15 0 -21 -22 -17 -57 1 -7 -2 -13 -8 -13 -5 0 -12 6 -14 13 -6 14
-10 -62 -7 -138 1 -31 7 -53 16 -58 8 -5 14 -23 14 -44 0 -28 -3 -34 -16 -29
-12 4 -15 2 -10 -9 3 -9 0 -15 -8 -15 -7 0 -18 -12 -24 -26 -7 -14 -16 -23
-21 -19 -5 3 -13 0 -17 -6 -4 -7 -3 -9 4 -5 6 3 13 2 17 -4 3 -5 0 -10 -8 -10
-8 0 -17 -9 -20 -20 -3 -11 -12 -20 -20 -20 -8 0 -17 -9 -20 -21 -3 -12 -10
-18 -16 -15 -6 4 -8 -2 -6 -14 2 -11 -1 -20 -6 -20 -6 0 -7 -6 -3 -12 6 -10 4
-10 -7 0 -20 18 -34 15 -18 -5 10 -11 10 -14 2 -9 -9 5 -13 0 -13 -16 0 -20
-5 -24 -32 -23 -25 0 -33 4 -32 18 1 12 -5 17 -25 16 -14 0 -71 0 -126 0 -128
0 -135 -1 -129 -11 3 -5 9 -6 13 -4 4 3 8 -1 8 -9 0 -10 -8 -8 -31 8 -17 12
-33 21 -36 20 -3 -1 -3 6 -2 15 3 14 1 14 -13 2 -9 -7 -15 -9 -14 -4 6 32 -3
54 -21 54 -11 0 -20 6 -20 14 0 8 -6 16 -14 19 -7 3 -16 19 -19 36 -4 17 -12
31 -18 31 -8 0 -8 -4 1 -15 11 -13 10 -14 -4 -9 -10 4 -16 17 -16 35 0 19 -5
29 -15 29 -8 0 -15 9 -15 19 0 15 -5 18 -22 13 -17 -4 -20 -2 -15 11 4 11 -1
20 -14 27 -11 6 -17 15 -14 20 3 5 1 11 -5 15 -6 4 -8 11 -5 16 10 16 -6 33
-17 18 -8 -11 -9 -11 -6 -1 2 8 7 12 11 10 5 -2 13 5 18 15 6 9 15 14 21 11 7
-4 8 -2 4 5 -4 6 -12 9 -17 6 -5 -3 -6 1 -3 9 3 9 10 13 15 10 8 -5 12 13 12
59 0 21 13 22 21 1 4 -10 2 -13 -6 -8 -7 4 -8 3 -4 -4 10 -16 27 -15 25 1 -5
42 2 137 11 132 6 -3 10 -1 10 4 0 6 -4 11 -9 11 -5 0 -9 26 -10 57 0 51 -13
79 -31 68 -3 -2 -7 12 -8 32 -2 20 -12 47 -22 61 -11 13 -17 28 -15 33 3 4 -4
6 -15 4 -11 -2 -20 1 -20 6 0 6 -4 8 -9 4 -5 -3 -12 -1 -15 4 -4 5 -1 13 5 17
8 5 9 3 4 -6 -5 -9 -4 -11 4 -6 6 4 9 12 5 17 -3 5 -10 7 -15 4 -5 -4 -9 1 -9
9 0 9 -5 16 -11 16 -5 0 -7 -4 -4 -10 3 -5 -1 -10 -9 -10 -9 0 -15 3 -13 8 1
4 -3 9 -8 10 -27 10 -45 24 -40 32 3 5 1 11 -4 15 -6 3 -8 -3 -6 -15 2 -11 0
-20 -6 -20 -5 0 -9 6 -9 14 0 8 -6 16 -12 18 -23 9 -224 6 -203 -2z m42 -15
c0 -8 -4 -12 -9 -9 -5 3 -6 10 -3 15 9 13 12 11 12 -6z m368 -145 c3 -5 1 -10
-4 -10 -6 0 -11 5 -11 10 0 6 2 10 4 10 3 0 8 -4 11 -10z m969 -198 c3 -5 -1
-9 -9 -9 -8 0 -12 4 -9 9 3 4 7 8 9 8 2 0 6 -4 9 -8z m-41 -425 c-5 -8 -8 -7
-11 1 -2 7 -9 9 -14 6 -7 -4 -8 -2 -4 4 4 6 13 9 21 6 8 -4 12 -11 8 -17z
m-140 -2 c-3 -9 -8 -14 -10 -11 -3 3 -2 9 2 15 9 16 15 13 8 -4z m-781 -67
c-7 -7 -12 -8 -12 -2 0 14 12 26 19 19 2 -3 -1 -11 -7 -17z m246 -141 c8 -10
6 -13 -9 -14 -19 -2 -25 8 -12 20 8 9 9 9 21 -6z m273 -10 c-10 -9 -11 -8 -5
6 3 10 9 15 12 12 3 -3 0 -11 -7 -18z m-42 -121 c8 -9 6 -12 -7 -11 -9 0 -22
4 -28 7 -5 4 -16 3 -23 -1 -9 -6 -10 -11 -2 -15 6 -4 11 -2 11 4 0 6 5 8 12 4
7 -4 26 -9 43 -11 42 -4 57 -11 50 -23 -3 -5 3 -10 14 -10 14 0 21 -6 21 -20
0 -17 9 -24 31 -22 8 1 12 -86 10 -190 -1 -37 -5 -48 -21 -53 -11 -3 -20 -13
-20 -21 0 -8 -7 -14 -15 -14 -8 0 -15 -9 -15 -20 0 -13 -7 -20 -20 -20 -11 0
-20 -6 -21 -12 0 -10 -2 -10 -6 0 -2 6 -9 12 -15 12 -6 0 -8 -6 -5 -14 4 -10
-8 -13 -56 -12 -46 1 -61 4 -59 14 1 8 -2 11 -8 7 -6 -3 -8 -11 -5 -16 4 -5 1
-9 -4 -9 -6 0 -11 7 -11 15 0 10 -10 15 -28 15 -35 0 -45 9 -30 27 6 8 7 13 2
12 -21 -4 -54 2 -53 9 5 31 -3 62 -16 62 -12 0 -15 17 -15 98 0 58 4 92 9 83
11 -17 20 -3 23 38 2 27 18 46 18 21 0 -5 5 -10 12 -10 6 0 8 3 5 7 -4 3 1 12
11 20 10 9 11 12 2 7 -8 -4 -11 -3 -7 1 8 9 24 13 68 18 14 1 26 7 26 14 0 6
-6 9 -14 6 -7 -3 -13 -1 -13 5 0 15 137 13 149 -2z m-369 -6 c0 -5 -4 -10 -10
-10 -5 0 -10 5 -10 10 0 6 5 10 10 10 6 0 10 -4 10 -10z m533 -196 c-7 -3 -9
-12 -6 -20 3 -8 1 -14 -5 -14 -8 0 -9 16 -3 38 1 1 7 2 14 1 9 0 9 -2 0 -5z
m-433 -124 c0 -5 -2 -10 -4 -10 -3 0 -8 5 -11 10 -3 6 -1 10 4 10 6 0 11 -4
11 -10z m35 -700 c1 -11 -4 -20 -10 -20 -9 0 -12 20 -6 49 2 11 15 -12 16 -29z
m545 26 c0 -3 -4 -8 -10 -11 -5 -3 -10 -1 -10 4 0 6 5 11 10 11 6 0 10 -2 10
-4z"/>
<path d="M1313 1453 c0 -9 4 -10 14 -2 7 6 13 12 13 14 0 1 -6 2 -13 2 -8 0
-14 -6 -14 -14z"/>
<path d="M966 2381 c-4 -5 -2 -12 3 -15 5 -4 12 -2 15 3 4 5 2 12 -3 15 -5 4
-12 2 -15 -3z"/>
<path d="M1005 2259 c-4 -6 -5 -12 -2 -15 2 -3 7 2 10 11 7 17 1 20 -8 4z"/>
<path d="M935 1920 c-3 -5 -1 -10 4 -10 6 0 11 5 11 10 0 6 -2 10 -4 10 -3 0
-8 -4 -11 -10z"/>
<path d="M966 1883 c-6 -14 -5 -15 5 -6 7 7 10 15 7 18 -3 3 -9 -2 -12 -12z"/>
<path d="M1070 1751 c0 -6 4 -13 10 -16 6 -3 7 1 4 9 -7 18 -14 21 -14 7z"/>
<path d="M1360 1640 c-9 -6 -10 -10 -3 -10 6 0 15 5 18 10 8 12 4 12 -15 0z"/>
<path d="M1029 1593 c-13 -16 -12 -17 4 -4 9 7 17 15 17 17 0 8 -8 3 -21 -13z"/>
<path d="M1673 1595 c0 -8 4 -15 9 -15 4 0 8 4 8 9 0 6 -4 12 -8 15 -5 3 -9
-1 -9 -9z"/>
<path d="M1710 1360 c0 -5 5 -10 11 -10 5 0 7 5 4 10 -3 6 -8 10 -11 10 -2 0
-4 -4 -4 -10z"/>
<path d="M1374 859 c-4 -7 -3 -9 4 -5 5 3 13 0 15 -6 4 -9 6 -10 6 -1 1 17
-16 25 -25 12z"/>
<path d="M1520 820 c-9 -6 -10 -10 -3 -10 6 0 15 5 18 10 8 12 4 12 -15 0z"/>
<path d="M1095 590 c-3 -5 -1 -10 4 -10 6 0 11 5 11 10 0 6 -2 10 -4 10 -3 0
-8 -4 -11 -10z"/>
<path d="M1629 345 c-6 -42 -5 -75 3 -75 5 0 6 -6 2 -12 -4 -7 -3 -10 1 -5 11
10 14 48 3 41 -4 -3 -8 -1 -8 5 0 5 5 11 12 13 8 3 8 9 0 24 -6 10 -12 15 -13
9z"/>
<path d="M957 19 c7 -7 15 -10 18 -7 3 3 -2 9 -12 12 -14 6 -15 5 -6 -5z"/>
</g>
</svg>
